<?xml version="1.0" encoding="iso-8859-1"?>
<!-- Uploaded to: SVG Repo, www.svgrepo.com, Generator: SVG Repo Mixer Tools -->
<svg version="1.1" id="Layer_1" xmlns="http://www.w3.org/2000/svg" xmlns:xlink="http://www.w3.org/1999/xlink" 
	 viewBox="0 0 512 512" xml:space="preserve">
<path style="fill:#547475;" d="M456.681,209.328c-14.463-23.348-30.563-43.664-46.899-59.96V128.09
	c0-12.132-9.835-21.969-21.966-21.969h-33.014c-26.544,0-26.483,20.499-26.483,20.499v16.019H183.692V126.62
	c0,0,0.061-20.499-26.485-20.499h-33.012c-12.134,0-21.969,9.837-21.969,21.969v21.278c-18.458,18.413-36.613,41.96-52.453,69.212
	C3.199,298.708-5.739,380.413,29.807,401.076c26.278,15.274,69.504-7.114,109.078-52.178h3.031
	c10.578,13.922,27.304,22.918,46.138,22.918s35.561-8.996,46.137-22.918h44.185c10.576,13.922,27.304,22.918,46.138,22.918
	c18.833,0,35.559-8.996,46.138-22.918h2.47c39.574,45.064,82.801,67.452,109.078,52.178c33.716-19.598,27.409-94.119-13.077-170.12"
	/>
<rect x="231.333" y="142.639" style="fill:#8AACAD;" width="49.334" height="24.226"/>
<circle style="fill:#53CAF9;" cx="368.342" cy="183.103" r="12.563"/>
<circle style="fill:#EFBA00;" cx="368.342" cy="251.892" r="12.563"/>
<circle style="fill:#73C470;" cx="333.948" cy="217.498" r="12.562"/>
<circle style="fill:#F74848;" cx="402.736" cy="217.498" r="12.562"/>
<path style="fill:#B4CCCB;" d="M178.206,206.91h-22.907v-22.907c0-1.346-1.093-2.438-2.438-2.438h-16.301
	c-1.347,0-2.438,1.092-2.438,2.438v22.907h-22.907c-1.347,0-2.438,1.092-2.438,2.438v16.301c0,1.346,1.092,2.438,2.438,2.438h22.907
	v22.908c0,1.346,1.092,2.438,2.438,2.438h16.301c1.345,0,2.438-1.092,2.438-2.438v-22.908h22.907c1.345,0,2.438-1.092,2.438-2.438
	v-16.301C180.644,208.002,179.551,206.91,178.206,206.91z"/>
<g>
	<circle style="fill:#8AACAD;" cx="324.51" cy="315.844" r="29.225"/>
	<circle style="fill:#8AACAD;" cx="186.911" cy="315.844" r="29.225"/>
</g>
<g style="opacity:0.2;">
	<rect x="231.333" y="142.639" style="fill:#231F20;" width="25.203" height="24.226"/>
</g>
<g style="opacity:0.2;">
	<path style="fill:#231F20;" d="M320.493,315.849c0-11.628,6.791-21.668,16.623-26.374c-3.817-1.826-8.09-2.851-12.602-2.851
		c-16.142,0-29.225,13.084-29.225,29.225c0,16.14,13.083,29.225,29.225,29.225c4.512,0,8.785-1.024,12.602-2.851
		C327.284,337.516,320.493,327.477,320.493,315.849z"/>
</g>
<g style="opacity:0.2;">
	<path style="fill:#231F20;" d="M182.885,315.849c0-11.628,6.791-21.668,16.622-26.374c-3.816-1.826-8.089-2.851-12.601-2.851
		c-16.142,0-29.225,13.084-29.225,29.225c0,16.14,13.083,29.225,29.225,29.225c4.512,0,8.785-1.024,12.601-2.851
		C189.676,337.516,182.885,327.477,182.885,315.849z"/>
</g>
<g>
	<path style="fill:#231F20;" d="M324.515,353.118c-20.55,0-37.269-16.719-37.269-37.269s16.719-37.269,37.269-37.269
		s37.269,16.719,37.269,37.269S345.065,353.118,324.515,353.118z M324.515,294.668c-11.68,0-21.181,9.501-21.181,21.181
		s9.501,21.181,21.181,21.181s21.181-9.501,21.181-21.181S336.194,294.668,324.515,294.668z"/>
	<path style="fill:#231F20;" d="M186.907,353.118c-20.55,0-37.269-16.719-37.269-37.269s16.719-37.269,37.269-37.269
		s37.269,16.719,37.269,37.269S207.457,353.118,186.907,353.118z M186.907,294.668c-11.68,0-21.181,9.501-21.181,21.181
		s9.501,21.181,21.181,21.181s21.181-9.501,21.181-21.181S198.587,294.668,186.907,294.668z"/>
	<path style="fill:#231F20;" d="M368.342,203.713c-11.362,0-20.605-9.244-20.605-20.607c0-11.362,9.244-20.605,20.605-20.605
		c11.363,0,20.608,9.244,20.608,20.605C388.949,194.469,379.704,203.713,368.342,203.713z M368.342,178.587
		c-2.491,0-4.518,2.027-4.518,4.518c0,2.492,2.027,4.519,4.518,4.519c2.492,0,4.52-2.027,4.52-4.519
		C372.862,180.615,370.834,178.587,368.342,178.587z"/>
	<path style="fill:#231F20;" d="M368.342,272.496c-11.362,0-20.605-9.244-20.605-20.605s9.244-20.605,20.605-20.605
		c11.363,0,20.608,9.244,20.608,20.605S379.704,272.496,368.342,272.496z M368.342,247.373c-2.491,0-4.518,2.027-4.518,4.518
		c0,2.491,2.027,4.518,4.518,4.518c2.492,0,4.52-2.027,4.52-4.518C372.862,249.4,370.834,247.373,368.342,247.373z"/>
	<path style="fill:#231F20;" d="M333.951,238.105c-11.363,0-20.608-9.244-20.608-20.605s9.245-20.605,20.608-20.605
		c11.362,0,20.605,9.244,20.605,20.605C354.556,228.861,345.313,238.105,333.951,238.105z M333.951,212.98
		c-2.492,0-4.52,2.027-4.52,4.518c0,2.491,2.028,4.518,4.52,4.518c2.491,0,4.518-2.027,4.518-4.518
		C338.469,215.007,336.443,212.98,333.951,212.98z"/>
	<path style="fill:#231F20;" d="M402.736,238.105c-11.363,0-20.608-9.244-20.608-20.605s9.245-20.605,20.608-20.605
		c11.362,0,20.605,9.244,20.605,20.605C423.342,228.861,414.098,238.105,402.736,238.105z M402.736,212.98
		c-2.492,0-4.521,2.027-4.521,4.518c0,2.491,2.028,4.518,4.521,4.518c2.491,0,4.518-2.027,4.518-4.518
		C407.254,215.007,405.227,212.98,402.736,212.98z"/>
	<path style="fill:#231F20;" d="M152.86,261.476h-16.301c-5.78,0-10.481-4.702-10.481-10.48v-14.865h-14.863
		c-5.78,0-10.481-4.702-10.481-10.481v-16.301c0-5.78,4.703-10.481,10.481-10.481h14.863v-14.863c0-5.78,4.703-10.481,10.481-10.481
		h16.301c5.78,0,10.481,4.702,10.481,10.481v14.863h14.863c5.78,0,10.481,4.702,10.481,10.481v16.299
		c0,5.78-4.703,10.481-10.481,10.481h-14.863v14.865C163.341,256.774,158.64,261.476,152.86,261.476z M142.164,245.39h5.09v-17.302
		c0-4.442,3.601-8.044,8.044-8.044H172.6v-5.09h-17.302c-4.442,0-8.044-3.601-8.044-8.044v-17.301h-5.09v17.301
		c0,4.442-3.6,8.044-8.044,8.044h-17.302v5.09h17.302c4.443,0,8.044,3.601,8.044,8.044V245.39z"/>
	<path style="fill:#231F20;" d="M267.802,323.893h-23.594c-4.443,0-8.044-3.6-8.044-8.044s3.6-8.044,8.044-8.044h23.594
		c4.443,0,8.044,3.6,8.044,8.044S272.244,323.893,267.802,323.893z"/>
	<path style="fill:#231F20;" d="M511.506,336.531c-2.588-32.668-15.12-71.505-35.283-109.358c-2.087-3.921-6.958-5.405-10.881-3.318
		c-3.92,2.089-5.405,6.96-3.317,10.881c37.85,71.055,45.088,142.555,16.133,159.385c-21.628,12.576-61.41-7.736-98.992-50.532
		c-1.527-1.738-3.73-2.736-6.044-2.736h-2.47c-2.514,0-4.884,1.175-6.405,3.178c-9.532,12.545-24.015,19.74-39.733,19.74
		c-15.72,0-30.202-7.195-39.732-19.74c-1.522-2.001-3.891-3.178-6.406-3.178H234.19c-2.515,0-4.884,1.177-6.406,3.178
		c-9.53,12.545-24.012,19.74-39.732,19.74c-15.718,0-30.201-7.195-39.733-19.74c-1.521-2.002-3.891-3.178-6.405-3.178h-3.031
		c-2.314,0-4.517,0.997-6.044,2.736c-37.582,42.795-77.364,63.108-98.993,50.532c-27.721-16.115-25.144-88.873,22.88-171.499
		c14.936-25.698,32.633-49.059,51.18-67.56c1.512-1.509,2.363-3.557,2.363-5.695V128.09c0-7.678,6.247-13.925,13.925-13.925h33.012
		c16.698,0,18.341,9.545,18.441,12.527v15.948c0,4.442,3.6,8.044,8.044,8.044h39.602v16.183c0,4.442,3.6,8.044,8.044,8.044h49.334
		c4.443,0,8.044-3.601,8.044-8.044v-16.183h39.602c4.443,0,8.044-3.601,8.044-8.044v-16.042c0-0.042,0.197-4.424,3.55-7.786
		c3.073-3.082,8.082-4.645,14.89-4.645h33.014c7.677,0,13.923,6.247,13.923,13.925v21.278c0,2.136,0.85,4.186,2.363,5.695
		c16.271,16.23,32.089,36.46,45.742,58.5c2.341,3.777,7.297,4.943,11.074,2.602c3.776-2.339,4.94-7.297,2.602-11.073
		c-13.643-22.022-29.393-42.364-45.694-59.032v-17.97c0-16.548-13.463-30.012-30.01-30.012H354.8
		c-11.238,0-20.081,3.154-26.283,9.373c-8.044,8.068-8.246,18.078-8.244,19.169v7.975H280.67h-49.334h-39.602v-7.951
		c0.003-1.115-0.201-11.125-8.244-19.192c-6.202-6.22-15.046-9.375-26.285-9.375h-33.012c-16.549,0-30.012,13.464-30.012,30.012
		v17.97c-18.656,19.072-36.367,42.677-51.364,68.478C19.741,254.241,4.889,295.691,1,331.253
		c-4.138,37.823,4.658,65.089,24.766,76.777c6.817,3.962,14.51,5.892,22.861,5.892c26.358-0.001,59.247-19.235,91.657-54.542
		c12.413,13.097,29.456,20.478,47.771,20.478c19.426,0,37.42-8.302,49.975-22.918h36.51c12.555,14.616,30.548,22.918,49.975,22.918
		c18.175,0,35.098-7.268,47.485-20.176c32.323,35.117,65.097,54.243,91.381,54.24c8.348-0.001,16.046-1.932,22.861-5.892
		C505.309,396.946,514.281,371.555,511.506,336.531z M272.628,150.681v8.139h-33.247v-8.139H272.628z"/>
</g>
<g style="opacity:0.2;">
	<path style="fill:#231F20;" d="M122.137,161.755c0.038-0.044,0.065-0.084,0.107-0.129c3.801-4.09,4.533-7.686,4.648-9.377v-25.232
		c0-9.77,6.382-18.042,15.203-20.896h-17.901c-12.134,0-21.969,9.837-21.969,21.969v21.278
		c-18.458,18.413-36.613,41.96-52.453,69.212C3.199,298.708-5.739,380.413,29.807,401.076c6.052,3.518,13.012,5.015,20.612,4.72
		C19.713,381.358,29.733,303,74.438,226.086C88.918,201.179,105.328,179.381,122.137,161.755z"/>
</g>
</svg>